<svg id="Layer_1" enable-background="new 0 0 512 512" height="512" viewBox="0 0 512 512" width="512" xmlns="http://www.w3.org/2000/svg"><g><g><path d="m256 0c-141.159 0-256 114.841-256 256s114.841 256 256 256 256-114.841 256-256-114.841-256-256-256zm10 227.742c11.617 4.16 20 15.318 20 28.258s-8.383 24.099-20 28.258zm0 77.227c22.741-4.69 40-24.996 40-48.97 0-23.972-17.259-44.279-40-48.969v-26.348c37.102 4.962 66 37.071 66 75.317s-28.898 70.356-66 75.317zm0 106.709c38.401-2.43 74.128-18.72 101.267-46.336 28.846-29.355 44.733-68.187 44.733-109.342 0-24.825-5.99-49.545-17.324-71.488-2.535-4.908-8.569-6.83-13.474-4.296-4.907 2.534-6.83 8.567-4.296 13.474 10.016 19.391 15.094 40.355 15.094 62.31 0 71.132-55.853 130.432-126 135.624v-40.146c22.164-2.289 42.681-12.121 58.473-28.191 17.751-18.064 27.527-41.961 27.527-67.287s-9.776-49.223-27.527-67.288c-15.791-16.069-36.309-25.902-58.473-28.191v-40.158c18.355 1.323 35.92 6.262 52.312 14.728 1.468.758 3.035 1.117 4.581 1.117 3.621 0 7.116-1.974 8.893-5.413 2.534-4.907.611-10.939-4.296-13.474-19.251-9.943-39.906-15.636-61.489-16.992v-40.06c103.153 5.284 185.999 91.73 185.999 195.731s-82.846 190.447-186 195.731zm-171.691-327.417c3.5 4.356 5.151 8.353 6.758 12.256 3.33 8.088 7.474 18.154 25.875 19.896 3.109.295 6.608.145 10.311-.014 5.464-.232 15.631-.669 17.859 1.972.755.894 1.241 3.768.152 8.938-1.422 2.046-9.748 4.834-14.246 6.341-11.683 3.912-24.925 8.345-29.563 20.723-3.044 8.122-1.431 17.343 4.933 28.188 5.81 9.904 17.108 9.341 26.188 8.887 6.393-.32 12.996-.649 15.96 2.136 6.977 6.556 11.426 14.011 10.82 18.129-.275 1.87-2.117 3.665-5.473 5.336-9.919 4.939-18.236 4.334-38.701-2.817-2.439-.853-6.273-2.809-10.332-4.879-13.695-6.988-27.857-14.21-38.787-8.2-15.433 8.492-18.733 7.993-19.062 7.906-.537-.179-2.24-1.76-3.367-2.806-4.56-4.232-11.079-10.28-24.762-14.433 11.786-41.654 34.755-78.656 65.437-107.559zm-70.051 127.076c8.397 2.754 12.277 6.332 15.77 9.574 3.987 3.701 8.911 8.313 17.638 8.163 6.616-.109 14.632-3.056 27.588-10.151 3.887-.251 15.063 5.467 20.508 8.245 4.681 2.388 9.101 4.644 12.823 5.944 11.404 3.986 21.741 7.158 32.154 7.158 7.192 0 14.422-1.514 22.061-5.319 11.908-5.93 15.46-14.327 16.343-20.327 2.302-15.64-11.06-30.118-16.911-35.617-9.162-8.61-21.585-7.989-30.652-7.536-2.717.135-6.656.333-8.49.008-3.701-6.634-3.17-9.384-2.906-10.089 1.296-3.456 10.479-6.531 17.186-8.777 11.577-3.876 24.698-8.269 27.422-20.974 2.379-11.093.9-19.898-4.396-26.171-8.562-10.141-23.265-9.512-33.996-9.051-2.998.128-5.83.25-7.571.084-3.186-.302-5.424-.931-6.303-1.773-.933-.894-1.873-3.179-2.963-5.826-1.883-4.574-4.48-10.846-10.141-17.727 37.848-30.079 85.107-48.791 136.578-50.948v303.499c-4.659-4.219-11.606-8.239-22.861-7.669-14.626.734-17.521-2.994-20.871-7.311-3.259-4.202-8.719-11.23-20.698-10.254-9.06.74-18.738 13.014-22.426 21.076-4.426 9.674-3.965 18.966 1.296 26.164 7.268 9.941 8.054 14.532 7.876 16.384-.187 1.942-1.967 3.954-5.098 7.343-3.446 3.731-7.736 8.375-10.518 15.131-.809 1.963-1.453 2.706-1.673 2.92-2.095.235-8.489-2.743-12.348-4.544-10.474-4.887-24.814-11.582-40.488-6.971-14.243 4.188-15.536 13.736-16.23 18.866-.396 2.926-.553 3.53-1.635 4.574-.646.624-1.368.929-3.434 1.712-1.488.564-3.213 1.22-5.098 2.201-32.388-40.411-51.794-91.652-51.794-147.348 0-15.268 1.475-30.195 4.258-44.663zm61.415 207.849c2.529-1.021 5.577-2.501 8.54-5.36 6.169-5.951 7.044-12.419 7.567-16.284.073-.54.165-1.217.254-1.697.335-.164.904-.401 1.8-.665 8.418-2.477 17.554 1.786 26.389 5.908 9.197 4.292 18.709 8.73 28.123 5.058 5.618-2.191 9.941-6.882 12.849-13.943 1.414-3.436 3.871-6.095 6.716-9.175 10.168-11.009 17.719-23.048-1.324-49.1-.201-.275-.735-1.005-.264-3.142 1.056-4.787 5.571-10.15 8.114-12.226.509.484 1.372 1.597 2.028 2.442 6.111 7.88 14.563 16.191 37.678 15.028 6.271-.305 8.028 1.757 11.548 5.882 2.267 2.656 5.474 6.4 10.31 8.542v141.318c-62.891-2.634-119.498-29.986-160.328-72.586zm180.327 72.587v-20.012c54.628-2.498 105.581-25.206 144.063-64.365 39.94-40.645 61.937-94.412 61.937-151.396s-21.997-110.752-61.938-151.396c-38.481-39.16-89.434-61.868-144.062-64.365v-20.012c125.509 5.26 226 108.993 226 235.773s-100.491 230.513-226 235.773z"/><path d="m351.838 146.035-.005.005c-3.715 4.086-3.411 10.408.675 14.123 1.916 1.741 4.322 2.6 6.723 2.6 2.721 0 5.433-1.104 7.406-3.275 3.715-4.086 3.414-10.411-.673-14.126s-10.41-3.414-14.126.673z"/></g></g></svg>