<svg height="512" viewBox="0 0 60 60" width="512" xmlns="http://www.w3.org/2000/svg"><g id="Page-1" fill="none" fill-rule="evenodd"><g id="026---Synthetic-Fabric" fill="rgb(0,0,0)" fill-rule="nonzero" transform="translate(0 -1)"><path id="Shape" d="m56.767 46.826c.5140496-1.4214337.111798-3.0126241-1.016-4.019-.4106651-.333536-.6496184-.8340288-.6507816-1.3630758s.2355871-1.0305857.6447816-1.3659242c.7971216-.7080643 1.2537442-1.7229663 1.2548904-2.7891541.0011463-1.0661879-.4532931-2.0820693-1.2488904-2.7918459-.4095534-.3324839-.6483746-.8311419-.6506993-1.3586589-.0023247-.5275169.2320922-1.0282605.6386993-1.3643411.7882681-.7171372 1.2447002-1.7284547 1.261-2.794-.0181799-1.0656058-.4716584-2.0773506-1.255-2.8-.3886074-.3443413-.6212773-.8313249-.645-1.35.0251285-.5187599.2549198-1.0063921.639-1.356.8000429-.7103561 1.2583685-1.7287598 1.2595148-2.7986537.0011463-1.069894-.4549959-2.0892775-1.2535148-2.8013463-.3898626-.3450822-.6226857-.8338302-.645-1.354.021146-.5197448.251625-1.0088365.639-1.356.8008963-.7083934 1.2599921-1.7259194 1.2611391-2.7951503s-.4557646-2.0877395-1.2551391-2.7978497c-.3880426-.34938898-.6202795-.83942678-.645-1.361.0211371-.52024703.2520106-1.00977104.64-1.357 1.1384119-1.01974343 1.5442869-2.62821107 1.026-4.066-.2791814-.73274432-.8631202-1.30792404-1.6-1.576-1.4458018-.5117649-3.0574277-.11925981-4.106 1-.3641543.39380501-.8727519.62265586-1.409.634-.5340204-.01247556-1.0397609-.24258751-1.4-.637-.7444833-.7558562-1.7610693-1.18146101-2.822-1.18146101s-2.0775167.42560481-2.822 1.18146101c-.3654184.38966415-.8758009.61073339-1.41.61073339s-1.0445816-.22106924-1.41-.61073339c-.744571-.75796952-1.7625011-1.18493694-2.825-1.18493694s-2.080429.42696742-2.825 1.18493694c-.3619569.39215379-.8713359.61518891-1.405.61518891s-1.0430431-.22303512-1.405-.61518891c-.7425504-.75661677-1.7577076-1.18354623-2.8178245-1.18505021-1.0601168-.00150398-2.0764813.42254338-2.8211755 1.17705021-.3603899.39823757-.8720761.62593707-1.4091726.62707942-.5370966.00114236-1.0497468-.22437848-1.4118274-.62107942-.7439903-.7537929-1.758633-1.17860125-2.8177477-1.17972836-1.0591148-.00112712-2.0746593.42152068-2.8202523 1.17372836-.3635868.39385337-.8745904.61876041-1.4106048.62084681s-1.0487534-.21883581-1.4153952-.60984681c-.744571-.75796952-1.7625011-1.18493694-2.825-1.18493694s-2.08042895.42696742-2.825 1.18493694c-.36200204.39281032-.87182267.61627318-1.406.61627318s-1.04399796-.22346286-1.406-.61627318c-1.03634704-1.11607521-2.63503858-1.5129024-4.073-1.011-.75272628.26160987-1.35100802.84304891-1.634 1.588-.52638401 1.43606155-.12013627 3.04796054 1.024 4.063.39325456.34432832.62578573.83655552.642 1.359-.0147568.52021756-.24427042 1.01110157-.634 1.356-.80089627.7083934-1.25999207 1.7259194-1.2611391 2.7951503-.00114704 1.0692309.45576456 2.0877395 1.2551391 2.7978497.38859054.3484625.6194768.8394566.64 1.361-.02321957.5195879-.25634792 1.0074974-.646 1.352-.78247404.7223451-1.23553558 1.7332432-1.254 2.798.01372061 1.0633242.46562099 2.0738589 1.249 2.793.39034434.3508211.62465336.842834.651 1.367-.02364257.5192668-.25627898 1.0069015-.645 1.352-.78284374.7221723-1.23627676 1.7330931-1.255 2.798.01515901 1.0601198.46704911 2.0670135 1.249 2.783.39088911.3504139.62531285.8426677.651 1.367-.02609797.5215148-.25807404 1.0113619-.645 1.362-.79712158.7080643-1.2537442 1.7229663-1.25489043 2.7891541-.00114624 1.0661879.45329313 2.0820693 1.24889043 2.7918459.39329158.3486117.62822625.8419384.651 1.367-.0203056.5210967-.25083688 1.0117423-.639 1.36-.78706583.7163335-1.24336381 1.7259064-1.261 2.79.01833547 1.0711512.47393336 2.0882076 1.261 2.815.38856071.3416377.61961378.8279701.639 1.345-.02435291.5163811-.25275517 1.0019607-.635 1.35-1.07264751.952106-1.50554864 2.4342289-1.114 3.814.27263568.9941408 1.0653025 1.7607431 2.068 2 .24185905.0570383.48950622.0858969.738.086 1.07191726-.0439508 2.096-.4557027 2.9-1.166.78884967-.8082366 2.07866684-.8388725 2.905-.069.74501133.756291 1.7629106 1.1811343 2.8245192 1.1788772s2.0776922-.4314251 2.8194808-1.1908772c.3618163-.3953454.8730811-.6204966 1.409-.6204966s1.0471837.2251512 1.409.6204966c.043.043.093.082.139.125.9405277 3.0612208 3.7776229 5.1431121 6.98 5.122h28.314c2.7546242.0029581 5.2778818-1.5401588 6.5302594-3.9936285s1.0219861-5.4021912-.5962594-7.6313715zm-43.784 7.517c-.3614309.3923755-.8702191.6161049-1.4036884.617244-.5334694.0011391-1.0432084-.2204156-1.4063116-.611244-1.512-1.536-3.695-1.57-5.564-.083-.5142086.5113319-1.22900644.7677945-1.951.7-.29099755-.0847366-.51496644-.317847-.588-.612-.17426058-.6640679.05237193-1.3689301.581-1.807.77693243-.7254323 1.22742549-1.7342627 1.249-2.797-.01590696-1.0624395-.46963307-2.0712021-1.254-2.788-.41026137-.334234-.64836168-.8353245-.64836168-1.3645s.23810031-1.030266.64836168-1.3645c.77779531-.7236185 1.23005273-1.7309191 1.254-2.793-.02309202-1.0642985-.47533457-2.0740905-1.254-2.8-.41028221-.3320723-.64865426-.831671-.64865426-1.3595s.23837205-1.0274277.64865426-1.3595c.78218448-.7196295 1.23538118-1.7282994 1.254-2.791-.02533168-1.065035-.4796844-2.0747077-1.26-2.8-.39213154-.3411575-.6241058-.8304782-.64-1.35.01859061-.5233018.25232356-1.015733.646-1.361.78023869-.720196 1.23309638-1.7273891 1.254-2.789-.01947313-1.066357-.47480956-2.0782158-1.26-2.8-.4061498-.334624-.64092639-.8336785-.63976428-1.3599194.00116211-.526241.23814054-1.0242537.64576428-1.3570806.78190722-.7206649 1.23499223-1.7298088 1.254-2.793-.02052011-1.066122-.47567981-2.077588-1.26-2.8-.39119998-.3460927-.62267077-.8379681-.64-1.36.01741454-.5195177.2503993-1.0083146.643-1.349.78569319-.7215596 1.24021447-1.73437907 1.257-2.801-.01501468-1.06526902-.46694991-2.07760393-1.25-2.8-.56042221-.46542813-.77527376-1.22854902-.54-1.918.07867488-.19241802.23761962-.34076644.435-.406.71006638-.24038687 1.49501314-.02875133 1.988.536.74442646.75477014 1.76063994 1.17917745 2.82075666 1.17804947 1.06011671-.00112799 2.07542474-.42769688 2.81824334-1.18404947.3601714-.39750864.8715892-.62425081 1.408-.62425081s1.0478286.22674217 1.408.62425081c.7454806.76006982 1.7653651 1.18832062 2.83 1.18832062s2.0845194-.4282508 2.83-1.18832062c.3600579-.39551262.8701431-.62094762 1.405-.62094762s1.0449421.225435 1.405.62094762c.7434824.75999094 1.7618198 1.18836489 2.825 1.18836489s2.0815176-.42837395 2.825-1.18836489c.358101-.39881523.869476-.62571564 1.4054662-.62361447s1.0455706.23300391 1.4005338.63461447c.7445234.75420887 1.7604706 1.1782442 2.8202559 1.17711637s2.0748277-.42732455 2.8177441-1.18311637c.3598052-.40106228.873539-.62969423 1.4123428-.62854865.5388037.00114558 1.0515606.23196001 1.4096572.63454865.7469659.7559431 1.7660697 1.18047593 2.8288037 1.17840799 1.0627341-.00206795 2.080178-.43056363 2.8241963-1.18940799.3612196-.39162171.8697269-.61437805 1.4025-.61437805s1.0412804.22275634 1.4025.61437805c.7348181.76922749 1.7482882 1.21036813 2.812 1.224h.007c1.0695194-.0124569 2.0890611-.45465472 2.829-1.227.5002192-.56944163 1.2976853-.7752521 2.011-.519.1828516.07237229.3276277.21714844.4.4.2385273.68986587.0227361 1.45530637-.541 1.919-.7807467.72279659-1.2323 1.73319217-1.25 2.797.0205201 1.06612202.4756798 2.077588 1.26 2.8.3921315.3411575.6241058.8304782.64 1.35-.0185906.5233018-.2523236 1.015733-.646 1.361-.7978053.709342-1.2542525 1.7259517-1.2542525 2.7935s.4564472 2.084158 1.2542525 2.7935c.40965.334985.6468329.836512.6458634 1.3656879s-.2399887 1.0298304-.6508634 1.3633121c-.7954316.7098024-1.2498415 1.7255395-1.2488864 2.7916211s.4571842 2.0810029 1.2538864 2.7893789c.3931514.3460861.6267406.838576.646 1.362-.0184497.52328-.2544065 1.0151287-.651 1.357-.775571.7247402-1.2259007 1.7317624-1.249 2.793.0167529 1.0657153.4700565 2.0778765 1.254 2.8.4096726.3328262.6471266.8328634.646156 1.3606928s-.2402621 1.02699-.651156 1.3583072c-.7750802.7242588-1.2253659 1.7304616-1.249 2.791 0 .1.024.2.033.307l-6.322-8.837c-.498522-.6839514-.766767-1.5086472-.766-2.355v-12.755c1.1711335-.4351895 1.949952-1.550633 1.955-2.8v-1c0-1.6568542-1.3431458-3-3-3h-13c-1.6568542 0-3 1.3431458-3 3v1c.0052514 1.2667854.8056491 2.3937454 2 2.816v12.739c.000269.8475132-.26866 1.6732093-.768 2.358l-11.818 16.455c-.8481995 1.1666564-1.3312431 2.558713-1.388 4-1.4234777-.468952-2.9897443-.091235-4.043.975zm33.017-39.343c0 .5522847-.4477153 1-1 1h-13c-.5522847 0-1-.4477153-1-1v-1c0-.5522847.4477153-1 1-1h13c.5522847 0 1 .4477153 1 1zm-13 15.555v-12.555h11.045v12.555c-.002276 1.2656783.3976263 2.4993523 1.142 3.523l3.266 4.566c-3.452813 1.5346386-7.3790934 1.6096447-10.888.208-2.6471217-.9949174-5.4811061-1.3937239-8.3-1.168l2.586-3.6c.74714-1.0249289 1.1494778-2.2606557 1.149-3.529zm24.41 25.533c-.8940078 1.8025585-2.7410419 2.9341729-4.753 2.912h-28.314c-2.0044954.0025833-3.8404838-1.121131-4.7501585-2.9073283-.9096746-1.7861972-.7387755-3.9319793.4421585-5.5516717l7.634-10.63c3.0835882-.5743792 6.2656443-.2921447 9.2.816 1.9188172.7301929 3.9529813 1.1105403 6.006 1.123 2.3415351-.0018088 4.6525209-.5316162 6.761-1.55l5.148 7.2c.013.019.025.036.039.054l2.144 3c1.196284 1.6072326 1.3683684 3.7569279.443 5.534z"/><path id="Shape" d="m37 50c-1.6568542 0-3 1.3431458-3 3s1.3431458 3 3 3 3-1.3431458 3-3-1.3431458-3-3-3zm0 4c-.5522847 0-1-.4477153-1-1s.4477153-1 1-1 1 .4477153 1 1-.4477153 1-1 1z"/><path id="Shape" d="m30 43c-1.6568542 0-3 1.3431458-3 3s1.3431458 3 3 3 3-1.3431458 3-3-1.3431458-3-3-3zm0 4c-.5522847 0-1-.4477153-1-1s.4477153-1 1-1 1 .4477153 1 1-.4477153 1-1 1z"/><path id="Shape" d="m50 47c-1.6568542 0-3 1.3431458-3 3s1.3431458 3 3 3 3-1.3431458 3-3-1.3431458-3-3-3zm0 4c-.5522847 0-1-.4477153-1-1s.4477153-1 1-1 1 .4477153 1 1-.4477153 1-1 1z"/><circle id="Oval" cx="40" cy="47" r="1"/><circle id="Oval" cx="27" cy="53" r="1"/><circle id="Oval" cx="46" cy="55" r="1"/><path id="Shape" d="m11 11c.5522847 0 1-.4477153 1-1v-1c0-.55228475-.4477153-1-1-1s-1 .44771525-1 1v1c0 .5522847.4477153 1 1 1z"/><path id="Shape" d="m8 13h1c.55228475 0 1-.4477153 1-1s-.44771525-1-1-1h-1c-.55228475 0-1 .4477153-1 1s.44771525 1 1 1z"/><path id="Shape" d="m13 13h1c.5522847 0 1-.4477153 1-1s-.4477153-1-1-1h-1c-.5522847 0-1 .4477153-1 1s.4477153 1 1 1z"/><path id="Shape" d="m11 16c.5522847 0 1-.4477153 1-1v-1c0-.5522847-.4477153-1-1-1s-1 .4477153-1 1v1c0 .5522847.4477153 1 1 1z"/><path id="Shape" d="m17 19c.5522847 0 1-.4477153 1-1v-1c0-.5522847-.4477153-1-1-1s-1 .4477153-1 1v1c0 .5522847.4477153 1 1 1z"/><path id="Shape" d="m14 19c-.5522847 0-1 .4477153-1 1s.4477153 1 1 1h1c.5522847 0 1-.4477153 1-1s-.4477153-1-1-1z"/><path id="Shape" d="m19 21h1c.5522847 0 1-.4477153 1-1s-.4477153-1-1-1h-1c-.5522847 0-1 .4477153-1 1s.4477153 1 1 1z"/><path id="Shape" d="m17 24c.5522847 0 1-.4477153 1-1v-1c0-.5522847-.4477153-1-1-1s-1 .4477153-1 1v1c0 .5522847.4477153 1 1 1z"/><path id="Shape" d="m23 11c.5522847 0 1-.4477153 1-1v-1c0-.55228475-.4477153-1-1-1s-1 .44771525-1 1v1c0 .5522847.4477153 1 1 1z"/><path id="Shape" d="m20 13h1c.5522847 0 1-.4477153 1-1s-.4477153-1-1-1h-1c-.5522847 0-1 .4477153-1 1s.4477153 1 1 1z"/><path id="Shape" d="m25 13h1c.5522847 0 1-.4477153 1-1s-.4477153-1-1-1h-1c-.5522847 0-1 .4477153-1 1s.4477153 1 1 1z"/><path id="Shape" d="m23 16c.5522847 0 1-.4477153 1-1v-1c0-.5522847-.4477153-1-1-1s-1 .4477153-1 1v1c0 .5522847.4477153 1 1 1z"/><path id="Shape" d="m12 26c0-.5522847-.4477153-1-1-1s-1 .4477153-1 1v1c0 .5522847.4477153 1 1 1s1-.4477153 1-1z"/><path id="Shape" d="m8 30h1c.55228475 0 1-.4477153 1-1s-.44771525-1-1-1h-1c-.55228475 0-1 .4477153-1 1s.44771525 1 1 1z"/><path id="Shape" d="m13 30h1c.5522847 0 1-.4477153 1-1s-.4477153-1-1-1h-1c-.5522847 0-1 .4477153-1 1s.4477153 1 1 1z"/><path id="Shape" d="m12 31c0-.5522847-.4477153-1-1-1s-1 .4477153-1 1v1c0 .5522847.4477153 1 1 1s1-.4477153 1-1z"/><path id="Shape" d="m11 42c-.5522847 0-1 .4477153-1 1v1c0 .5522847.4477153 1 1 1s1-.4477153 1-1v-1c0-.5522847-.4477153-1-1-1z"/><path id="Shape" d="m9 45h-1c-.55228475 0-1 .4477153-1 1s.44771525 1 1 1h1c.55228475 0 1-.4477153 1-1s-.44771525-1-1-1z"/><path id="Shape" d="m14 45h-1c-.5522847 0-1 .4477153-1 1s.4477153 1 1 1h1c.5522847 0 1-.4477153 1-1s-.4477153-1-1-1z"/><path id="Shape" d="m11 47c-.5522847 0-1 .4477153-1 1v1c0 .5522847.4477153 1 1 1s1-.4477153 1-1v-1c0-.5522847-.4477153-1-1-1z"/><path id="Shape" d="m16 36c0 .5522847.4477153 1 1 1s1-.4477153 1-1v-1c0-.5522847-.4477153-1-1-1s-1 .4477153-1 1z"/><path id="Shape" d="m15 37h-1c-.5522847 0-1 .4477153-1 1s.4477153 1 1 1h1c.5522847 0 1-.4477153 1-1s-.4477153-1-1-1z"/><path id="Shape" d="m20 37h-1c-.5522847 0-1 .4477153-1 1s.4477153 1 1 1h1c.5522847 0 1-.4477153 1-1s-.4477153-1-1-1z"/><path id="Shape" d="m18 41v-1c0-.5522847-.4477153-1-1-1s-1 .4477153-1 1v1c0 .5522847.4477153 1 1 1s1-.4477153 1-1z"/><path id="Shape" d="m22 27c0 .5522847.4477153 1 1 1s1-.4477153 1-1v-1c0-.5522847-.4477153-1-1-1s-1 .4477153-1 1z"/><path id="Shape" d="m21 28h-1c-.5522847 0-1 .4477153-1 1s.4477153 1 1 1h1c.5522847 0 1-.4477153 1-1s-.4477153-1-1-1z"/><path id="Shape" d="m26 28h-1c-.5522847 0-1 .4477153-1 1s.4477153 1 1 1h1c.5522847 0 1-.4477153 1-1s-.4477153-1-1-1z"/><path id="Shape" d="m23 30c-.5522847 0-1 .4477153-1 1v1c0 .5522847.4477153 1 1 1s1-.4477153 1-1v-1c0-.5522847-.4477153-1-1-1z"/></g></g></svg>